<svg width="33" height="28" viewBox="0 0 33 28" fill="none" xmlns="http://www.w3.org/2000/svg">
<path d="M2.80266 12.6006H30.7991C31.1704 12.6006 31.5264 12.7481 31.7889 13.0106C32.0515 13.2731 32.1989 13.6292 32.1989 14.0004C32.1989 14.3717 32.0515 14.7277 31.7889 14.9902C31.5264 15.2528 31.1704 15.4002 30.7991 15.4002H2.80266C2.4314 15.4002 2.07535 15.2528 1.81283 14.9902C1.55031 14.7277 1.40283 14.3717 1.40283 14.0004C1.40283 13.6292 1.55031 13.2731 1.81283 13.0106C2.07535 12.7481 2.4314 12.6006 2.80266 12.6006Z" fill="black"/>
<path d="M3.38168 14L14.9918 25.6073C15.2547 25.8702 15.4023 26.2267 15.4023 26.5984C15.4023 26.9701 15.2547 27.3266 14.9918 27.5895C14.729 27.8523 14.3725 28 14.0007 28C13.629 28 13.2725 27.8523 13.0097 27.5895L0.411251 14.9911C0.28089 14.861 0.177463 14.7066 0.106894 14.5365C0.036325 14.3664 0 14.1841 0 14C0 13.8159 0.036325 13.6336 0.106894 13.4635C0.177463 13.2934 0.28089 13.139 0.411251 13.0089L13.0097 0.410516C13.2725 0.147667 13.629 0 14.0007 0C14.3725 0 14.729 0.147667 14.9918 0.410516C15.2547 0.673366 15.4023 1.02987 15.4023 1.40159C15.4023 1.77332 15.2547 2.12982 14.9918 2.39267L3.38168 14Z" fill="black"/>
</svg>
