<svg width="31" height="30" viewBox="0 0 31 30" fill="none" xmlns="http://www.w3.org/2000/svg">
<path fill-rule="evenodd" clip-rule="evenodd" d="M19.25 1.5625H14.1795C11.8823 1.56248 10.0627 1.56246 8.63873 1.75393C7.1732 1.95095 5.98701 2.3661 5.05155 3.30155C4.1161 4.23701 3.70095 5.4232 3.50393 6.88873C3.31246 8.31274 3.31248 10.1323 3.3125 12.4295V20C3.3125 22.3403 5.02756 24.28 7.26939 24.6309C7.44185 25.5859 7.77191 26.401 8.43544 27.0646C9.18784 27.817 10.1352 28.1406 11.2603 28.2919C12.344 28.4375 13.7219 28.4375 15.4314 28.4375H19.3186C21.0281 28.4375 22.406 28.4375 23.4897 28.2919C24.6149 28.1406 25.5621 27.817 26.3146 27.0646C27.067 26.3121 27.3906 25.3649 27.5419 24.2397C27.6875 23.156 27.6875 21.7781 27.6875 20.0686V13.6814C27.6875 11.9719 27.6875 10.594 27.5419 9.51031C27.3906 8.38518 27.067 7.43784 26.3146 6.68544C25.651 6.02191 24.8359 5.69185 23.8809 5.51939C23.53 3.27756 21.5903 1.5625 19.25 1.5625ZM21.9116 5.33896C21.5331 4.23279 20.4845 3.4375 19.25 3.4375H14.25C11.8665 3.4375 10.1731 3.43949 8.88856 3.6122C7.63095 3.78128 6.90639 4.09836 6.37738 4.62738C5.84836 5.15639 5.53128 5.88095 5.3622 7.13856C5.18949 8.42314 5.1875 10.1165 5.1875 12.5V20C5.1875 21.2345 5.9828 22.2831 7.08896 22.6616C7.06248 21.8992 7.06249 21.0371 7.0625 20.0686V13.6814C7.06248 11.9719 7.06245 10.594 7.20815 9.51031C7.35943 8.38518 7.68304 7.43784 8.43544 6.68544C9.18784 5.93304 10.1352 5.60943 11.2603 5.45815C12.344 5.31245 13.7219 5.31248 15.4314 5.3125H19.3186C20.2871 5.31249 21.1492 5.31248 21.9116 5.33896ZM9.76126 8.01126C10.1072 7.66531 10.5929 7.43975 11.5102 7.31644C12.4543 7.18949 13.7057 7.1875 15.5 7.1875H19.25C21.0443 7.1875 22.2956 7.18949 23.2399 7.31644C24.1571 7.43975 24.6427 7.66531 24.9887 8.01126C25.3347 8.35721 25.5603 8.84294 25.6836 9.76015C25.8105 10.7043 25.8125 11.9557 25.8125 13.75V20C25.8125 21.7943 25.8105 23.0456 25.6836 23.9899C25.5603 24.9071 25.3347 25.3927 24.9887 25.7387C24.6427 26.0847 24.1571 26.3103 23.2399 26.4336C22.2956 26.5605 21.0443 26.5625 19.25 26.5625H15.5C13.7057 26.5625 12.4543 26.5605 11.5102 26.4336C10.5929 26.3103 10.1072 26.0847 9.76126 25.7387C9.41531 25.3927 9.18975 24.9071 9.06644 23.9899C8.93949 23.0456 8.9375 21.7943 8.9375 20V13.75C8.9375 11.9557 8.93949 10.7043 9.06644 9.76015C9.18975 8.84294 9.41531 8.35721 9.76126 8.01126Z" fill="#9292A5"/>
</svg>
