<svg width="32" height="32" viewBox="0 0 32 32" fill="none" xmlns="http://www.w3.org/2000/svg">
<g id="Double_Right_Chevron">
<path id="Vector" fill-rule="evenodd" clip-rule="evenodd" d="M7.60964 5.72402C7.08894 5.20332 6.24472 5.20332 5.72402 5.72402C5.20332 6.24472 5.20332 7.08894 5.72402 7.60964L14.1146 16.0002L5.72402 24.3907C5.20332 24.9114 5.20332 25.7556 5.72402 26.2763C6.24472 26.797 7.08894 26.797 7.60964 26.2763L16.943 16.943C17.4636 16.4223 17.4636 15.578 16.943 15.0574L7.60964 5.72402ZM16.943 5.72402C16.4223 5.20332 15.578 5.20332 15.0574 5.72402C14.5367 6.24472 14.5367 7.08894 15.0574 7.60964L23.4479 16.0002L15.0574 24.3907C14.5367 24.9114 14.5367 25.7556 15.0574 26.2763C15.578 26.797 16.4223 26.797 16.943 26.2763L26.2763 16.943C26.797 16.4223 26.797 15.578 26.2763 15.0574L16.943 5.72402Z" fill="#9292A5"/>
</g>
</svg>
