<svg width="59" height="60" viewBox="0 0 59 60" fill="none" xmlns="http://www.w3.org/2000/svg">
<rect opacity="0.8" x="0.999674" y="1.33366" width="57.3333" height="57.3333" rx="28.6667" fill="#5891EB" stroke="#5891EB" stroke-width="1.33333"/>
<path d="M29.6659 16.667C26.1725 16.667 23.3325 19.507 23.3325 23.0003C23.3325 26.427 26.0125 29.2003 29.5059 29.3203C29.6125 29.307 29.7192 29.307 29.7992 29.3203C29.8259 29.3203 29.8392 29.3203 29.8659 29.3203C29.8792 29.3203 29.8792 29.3203 29.8925 29.3203C33.3059 29.2003 35.9859 26.427 35.9992 23.0003C35.9992 19.507 33.1592 16.667 29.6659 16.667Z" fill="white"/>
<path d="M36.4393 32.8668C32.7193 30.3868 26.6526 30.3868 22.906 32.8668C21.2126 34.0002 20.2793 35.5335 20.2793 37.1735C20.2793 38.8135 21.2126 40.3335 22.8926 41.4535C24.7593 42.7068 27.2126 43.3335 29.666 43.3335C32.1193 43.3335 34.5726 42.7068 36.4393 41.4535C38.1193 40.3202 39.0526 38.8002 39.0526 37.1468C39.0393 35.5068 38.1193 33.9868 36.4393 32.8668Z" fill="white"/>
</svg>
