<svg width="679" height="348" viewBox="0 0 679 348" fill="none" xmlns="http://www.w3.org/2000/svg">
<path d="M450.798 180.778C450.235 181.122 449.571 181.618 448.74 182.063C447.908 182.509 446.983 183.063 445.908 183.677L442.361 185.517C441.008 186.097 439.63 186.803 438.076 187.416C434.64 188.828 431.104 189.98 427.496 190.862C425.58 191.332 423.571 191.702 421.479 192.055C419.184 192.39 416.872 192.606 414.555 192.702C413.403 192.702 412.261 192.702 411.084 192.702C391.597 192.19 374.219 180.568 362.025 166.005C349.521 151.072 341.765 133.114 334.008 115.442C327.504 100.627 320.437 85.3828 308.798 73.8282C304.041 69.0729 298.519 65.1501 292.462 62.2232C275.3 54.1005 255.482 53.7151 238.017 61.1643L236.966 61.6265C230.141 64.726 223.718 68.6456 217.84 73.2988C206.294 82.3324 196.832 92.9374 188.185 103.769C179.538 114.601 171.58 125.937 163.647 136.24C148.219 156.181 128.723 174.895 106.899 181.618C101.646 183.301 96.1712 184.191 90.6555 184.257C87.9281 184.284 85.202 184.127 82.4958 183.786C79.7821 183.398 77.096 182.836 74.4538 182.105C63.8474 179.193 54.1993 173.528 46.4875 165.685C40.8871 160.077 36.5169 153.363 33.6555 145.971C32.7486 143.57 32.0129 141.107 31.4538 138.601C30.3195 133.645 29.9118 128.549 30.2438 123.475C30.6171 118.412 31.6743 113.423 33.3866 108.643C36.8621 99.0469 42.6015 90.4306 50.1177 83.5257C57.2526 76.8915 65.9106 72.1152 75.3278 69.6181C84.1675 67.3276 93.4644 67.4903 102.219 70.0887C110.475 72.3648 117.954 76.8508 123.849 83.0635C129.153 88.6277 132.333 95.8795 132.832 103.551C133.113 107.078 132.731 110.627 131.706 114.013C131.066 116.054 130.222 118.025 129.185 119.895C131.364 111.407 129.5 102.387 124.135 95.4575C118.769 88.5279 110.504 84.4653 101.74 84.45C84.9917 84.45 71.2438 100.063 73.6303 116.719C73.968 119.057 74.6122 121.339 75.5463 123.509C80.2354 134.29 91.8992 140.702 103.261 141.282C114.836 141.777 126.058 137.232 134.025 128.82C137.066 125.557 139.553 121.818 141.387 117.753C141.908 116.702 142.227 115.568 142.689 114.45C143.151 113.332 143.395 112.139 143.681 110.946C144.206 108.547 144.546 106.111 144.698 103.66C145.012 98.4868 144.401 93.2989 142.891 88.3408C141.296 83.1069 138.833 78.1783 135.605 73.761C129.084 64.7441 119.513 57.4837 108.487 52.9458C96.7574 48.0328 83.9023 46.4397 71.3278 48.3408C45.1513 52.2063 19.9832 70.3156 7.3782 97.9206C4.16464 104.977 1.96093 112.451 0.831991 120.122C0.563084 122.089 0.378206 124.08 0.184929 126.063C-0.00834858 128.047 5.37629e-05 130.08 5.37629e-05 132.08C0.0249756 136.121 0.35081 140.155 0.974847 144.147C1.58082 148.191 2.4824 152.185 3.67233 156.097C4.91077 160.044 6.42428 163.899 8.20174 167.635C11.7802 175.19 16.4304 182.19 22.0085 188.416C27.6284 194.739 34.0694 200.281 41.1597 204.895C52.1142 211.996 64.4151 216.762 77.2942 218.895C81.7149 219.59 86.1808 219.958 90.6555 219.996C99.6782 220.084 108.662 218.806 117.303 216.206C125.641 213.713 133.649 210.223 141.151 205.811C148.246 201.643 154.946 196.836 161.168 191.45C181.605 173.887 198.008 149.828 215.37 129.122C222.286 120.879 229.294 112.551 237.992 106.232C252.807 95.4836 269.924 94.6265 285.219 105.055C300.899 115.685 310.941 132.005 322.353 146.668C335.605 163.694 349.941 181.122 368.109 193.131C381.95 202.29 399.328 207.895 416.008 205.005C421.202 204.106 426.244 202.479 430.983 200.173C434.835 198.315 438.444 195.992 441.731 193.257C443.177 192.08 444.403 190.82 445.529 189.736C446.656 188.652 447.555 187.458 448.361 186.45C449.168 185.442 449.79 184.475 450.353 183.66C450.916 182.845 451.294 182.089 451.63 181.509C452.269 180.324 452.597 179.694 452.597 179.694L450.798 180.778Z" fill="url(#paint0_linear_33_5057)"/>
<path d="M90.4198 212.139C82.4182 212.066 74.4728 210.794 66.8483 208.366C51.808 203.703 38.3299 195.014 27.8736 183.24C20.2691 174.737 14.5653 164.71 11.1425 153.828C10.0643 150.326 9.2525 146.747 8.7139 143.122C8.70398 143.043 8.68995 142.964 8.67188 142.887C8.1291 139.27 7.84826 135.619 7.83154 131.962C7.83154 130.643 7.89877 129.156 7.966 127.668L8.00801 126.635C8.17607 124.845 8.35255 122.996 8.59625 121.223C9.61382 114.312 11.5938 107.577 14.4786 101.215C25.5038 77.0717 47.7055 59.8028 72.4198 56.1473C75.494 55.691 78.5976 55.4607 81.7055 55.4582C89.8386 55.4371 97.8935 57.0458 105.395 60.1893C112.805 63.1769 119.518 67.666 125.109 73.3742C119.058 68.3675 112.024 64.6859 104.462 62.5674C99.148 60.9773 93.6302 60.1733 88.0836 60.1809C83.1433 60.1841 78.2228 60.8052 73.4366 62.0296C62.7623 64.8398 52.9477 70.2436 44.8651 77.7607C36.3955 85.525 29.9362 95.2283 26.0416 106.038C24.0961 111.485 22.8947 117.169 22.4702 122.937C22.0824 128.751 22.5381 134.59 23.8231 140.273C24.4673 143.13 25.3096 145.938 26.3441 148.677L26.4702 149.013C29.732 157.349 34.6716 164.925 40.9828 171.273C45.2484 175.599 50.0525 179.358 55.2769 182.458L55.4198 182.542C63.3775 187.233 72.1908 190.29 81.3441 191.534H81.7055C84.3156 191.856 86.9414 192.035 89.571 192.072H90.8063C97.0316 192.005 103.212 191.008 109.142 189.114C129.546 182.87 149.958 166.719 169.823 141.088C173.05 136.887 176.311 132.467 179.453 128.206C184.218 121.752 189.151 115.088 194.268 108.693C201.722 99.4078 210.932 88.6683 222.638 79.5086C228.001 75.2445 233.869 71.6573 240.109 68.828L241.075 68.3994C256.461 61.8507 273.911 62.187 289.033 69.3238C294.295 71.8684 299.092 75.2769 303.226 79.4078C313.621 89.7271 320.033 103.265 326.756 118.601L327.243 119.71C334.983 137.357 342.983 155.567 355.941 171.046C360.973 177.095 366.753 182.48 373.142 187.072L372.352 186.559C355.075 175.13 341.193 158.189 328.453 141.828C326.126 138.836 323.789 135.685 321.529 132.635C312.445 120.374 303.042 107.694 289.537 98.5338C281.033 92.7523 271.89 89.8111 262.479 89.8111C252.445 89.8111 242.311 93.2817 233.285 99.8952C223.722 106.836 216.033 116.004 209.26 124.097C204.285 130.021 199.327 136.307 194.537 142.374C182.495 157.626 170.05 173.391 155.958 185.509C150.095 190.581 143.783 195.109 137.1 199.038C130.155 203.124 122.743 206.36 115.025 208.677C107.592 210.901 99.8838 212.072 92.1256 212.156L90.4198 212.139ZM105.218 133.509C104.705 133.509 104.201 133.509 103.697 133.509C95.9156 133.088 86.445 128.887 82.7979 120.458C82.1374 118.92 81.6825 117.301 81.445 115.643C80.71 109.854 82.5183 104.031 86.403 99.6767C92.5708 92.4682 102.897 90.4696 111.309 94.8563C119.721 99.243 123.993 108.854 121.613 118.038C120.77 121.321 122.124 124.775 124.974 126.609C119.326 131.018 112.383 133.443 105.218 133.509Z" fill="url(#paint1_linear_33_5057)"/>
<path d="M227.992 39.2146C228.555 38.87 229.219 38.3742 230.051 37.9289C230.882 37.4835 231.807 36.9204 232.882 36.3154L236.429 34.4751C237.782 33.8952 239.16 33.181 240.714 32.5759C244.15 31.1643 247.686 30.0126 251.294 29.1305C253.21 28.6599 255.219 28.2482 257.311 27.9372C259.606 27.6018 261.918 27.3858 264.235 27.2902C265.387 27.2902 266.53 27.2482 267.706 27.2902C287.193 27.8112 304.572 39.433 316.765 53.9961C329.269 68.9288 337.025 86.8868 344.782 104.551C351.286 119.374 358.353 134.618 369.992 146.173C374.749 150.928 380.271 154.851 386.328 157.778C403.491 165.897 423.31 166.28 440.773 158.828L441.824 158.374C448.65 155.272 455.072 151.349 460.95 146.694C472.496 137.66 481.958 127.055 490.605 116.231C499.252 105.408 507.202 94.0801 515.135 83.744C530.563 63.8364 550.059 45.0885 571.882 38.4162C577.136 36.7208 582.614 35.8201 588.135 35.744C590.862 35.7164 593.588 35.8736 596.294 36.2146C599.007 36.5891 601.693 37.1364 604.336 37.8532C614.94 40.7673 624.587 46.4285 632.303 54.265C636.04 58.0417 639.248 62.3074 641.84 66.9457C643.096 69.2161 644.196 71.5688 645.135 73.9877C646.043 76.3888 646.778 78.8516 647.336 81.3574C648.471 86.3141 648.878 91.4094 648.546 96.4835C648.173 101.547 647.116 106.536 645.404 111.315C641.928 120.912 636.189 129.528 628.672 136.433C621.537 143.067 612.88 147.843 603.462 150.341C594.623 152.631 585.326 152.468 576.572 149.87C568.315 147.594 560.836 143.108 554.941 136.895C549.637 131.331 546.457 124.079 545.958 116.408C545.667 112.898 546.032 109.364 547.034 105.988C547.674 103.947 548.519 101.976 549.555 100.105C547.375 108.594 549.239 117.614 554.605 124.543C559.97 131.473 568.236 135.535 577 135.551C593.748 135.551 607.496 119.937 605.109 103.282C604.773 100.944 604.129 98.6608 603.193 96.4919C598.546 85.7524 586.882 79.3406 575.513 78.7272C563.939 78.2318 552.718 82.7741 544.748 91.1809C541.705 94.4627 539.221 98.2213 537.395 102.307C536.874 103.357 536.555 104.492 536.093 105.609C535.63 106.727 535.387 107.92 535.101 109.114C534.575 111.512 534.235 113.948 534.084 116.399C533.77 121.573 534.381 126.761 535.891 131.719C537.487 136.952 539.95 141.88 543.177 146.299C549.698 155.315 559.269 162.576 570.294 167.114C582.039 172.029 594.909 173.616 607.496 171.702C633.672 167.836 658.84 149.727 671.446 122.122C674.659 115.066 676.863 107.592 677.992 99.9205C678.261 97.9541 678.446 95.9625 678.639 93.9793C678.832 91.9961 678.824 89.9624 678.824 87.9624C678.799 83.9214 678.473 79.8878 677.849 75.8952C677.243 71.8515 676.341 67.8576 675.151 63.9456C673.913 59.9986 672.399 56.1432 670.622 52.4078C667.043 44.8525 662.393 37.8532 656.815 31.6263C651.214 25.2922 644.79 19.7359 637.714 15.1053C630.464 10.4335 622.618 6.75906 614.387 4.18095C610.183 2.86709 605.893 1.85058 601.546 1.13894C597.11 0.43103 592.627 0.0518414 588.135 0.00448288C579.112 -0.0858358 570.128 1.18909 561.488 3.786C553.175 6.28808 545.193 9.78095 537.714 14.1894C530.619 18.3578 523.919 23.1648 517.698 28.5507C497.261 46.1137 480.857 70.1726 463.496 90.8784C456.58 99.1221 449.572 107.45 440.874 113.769C426.059 124.509 408.941 125.374 393.647 114.946C377.967 104.315 367.924 87.9961 356.513 73.3322C343.261 56.2986 328.925 38.8784 310.756 26.87C296.916 17.7104 279.538 12.1053 262.857 14.9877C257.664 15.8928 252.623 17.5222 247.882 19.828C244.031 21.6862 240.422 24.0088 237.135 26.744C235.689 27.9205 234.462 29.181 233.336 30.265C232.21 31.349 231.311 32.5423 230.504 33.5423C229.698 34.5423 229.076 35.5255 228.513 36.3406C227.95 37.1557 227.572 37.912 227.235 38.4919C226.597 39.6767 226.269 40.2986 226.269 40.2986L227.992 39.2146Z" fill="url(#paint2_linear_33_5057)"/>
<path d="M588.37 7.86253C596.371 7.93531 604.317 9.20713 611.941 11.6356C626.982 16.2989 640.46 24.9878 650.916 36.7617C658.526 45.277 664.23 55.3187 667.647 66.2155C668.725 69.7178 669.537 73.2966 670.076 76.9213C670.072 76.9997 670.072 77.0783 670.076 77.1566C670.619 80.7731 670.899 84.4241 670.916 88.081C670.916 89.4087 670.849 90.8961 670.782 92.3751V93.4171C670.614 95.207 670.437 97.0558 670.193 98.8289C669.176 105.74 667.196 112.475 664.311 118.837C653.277 142.963 631.076 160.241 606.361 163.888C603.288 164.351 600.184 164.584 597.076 164.585C588.943 164.606 580.888 162.998 573.387 159.854C565.975 156.853 559.266 152.35 553.681 146.627C559.732 151.634 566.765 155.315 574.328 157.434C579.642 159.024 585.159 159.828 590.706 159.82C595.646 159.817 600.567 159.196 605.353 157.972C616.027 155.162 625.842 149.758 633.924 142.241C642.394 134.476 648.853 124.773 652.748 113.963C654.694 108.517 655.895 102.832 656.319 97.0642C656.707 91.2505 656.252 85.4112 654.967 79.7281C654.322 76.8718 653.48 74.0639 652.446 71.3247L652.319 70.9886C651.271 68.2898 650.041 65.6648 648.639 63.1314C645.729 57.8709 642.11 53.0357 637.883 48.7617C633.597 44.4132 628.767 40.6368 623.513 37.5264C623.468 37.4937 623.42 37.4656 623.37 37.4423C615.412 32.7514 606.599 29.6946 597.446 28.4508L597.084 28.4087C594.474 28.0868 591.848 27.9073 589.219 27.8709H587.983C581.755 27.9574 575.575 28.9742 569.647 30.8877C549.244 37.1314 528.832 53.2827 508.967 78.9129C505.74 83.1146 502.479 87.5264 499.336 91.7953C494.572 98.2407 489.639 104.913 484.521 111.308C477.067 120.552 467.857 131.333 456.151 140.493C450.789 144.757 444.921 148.344 438.681 151.173L437.714 151.602C422.329 158.154 404.876 157.814 389.756 150.669C384.493 148.128 379.695 144.719 375.563 140.585C365.168 130.266 358.756 116.728 352.034 101.392L351.546 100.274C343.807 82.6272 335.807 64.4255 322.849 48.9465C317.801 42.88 312 37.4808 305.588 32.8793L306.378 33.4003C323.656 44.8289 337.538 61.7701 350.277 78.1314C352.605 81.123 354.941 84.2743 357.202 87.3247C366.286 99.5852 375.689 112.266 389.193 121.426C397.698 127.207 406.84 130.148 416.252 130.148C426.286 130.148 436.378 126.678 445.446 120.064C455.009 113.123 462.698 103.955 469.471 95.8625C474.445 89.9802 479.404 83.6524 484.193 77.5852C496.235 62.3331 508.681 46.5684 522.773 34.4507C528.636 29.3787 534.948 24.8503 541.63 20.9213C548.595 16.8419 556.027 13.6196 563.765 11.3247C571.198 9.10047 578.906 7.92939 586.664 7.8457L588.37 7.86253ZM573.572 86.4843C574.084 86.4843 574.588 86.4844 575.093 86.5264C582.874 86.9466 592.345 91.1398 595.992 99.5768C596.651 101.113 597.106 102.729 597.345 104.384C598.08 110.172 596.271 115.996 592.387 120.35C586.219 127.558 575.892 129.557 567.48 125.17C559.068 120.784 554.796 111.172 557.177 101.989C558.02 98.7056 556.666 95.2515 553.815 93.4171C559.459 88.9971 566.403 86.5605 573.572 86.4843Z" fill="url(#paint3_linear_33_5057)"/>
<path d="M10.5371 260.125H20.6621L43.5371 316H44.3809L67.2559 260.125H77.3809V328H69.4121V276.719H68.7559L47.6621 328H40.1621L19.0684 276.719H18.5059V328H10.5371V260.125ZM160.912 260.125H169.35V305.031C169.35 319 158.943 329.219 142.912 329.219C126.881 329.219 116.475 319 116.475 305.031V260.125H124.912V304.375C124.912 314.219 131.756 321.344 142.912 321.344C154.162 321.344 160.912 314.219 160.912 304.375V260.125ZM208.443 328V260.125H216.881V320.5H248.381V328H208.443ZM283.725 260.125H293.85L316.725 316H317.568L340.443 260.125H350.568V328H342.6V276.719H341.943L320.85 328H313.35L292.256 276.719H291.693V328H283.725V260.125ZM447.037 294.062C447.037 315.531 434.381 328.938 417.037 328.938C399.6 328.938 387.037 315.531 387.037 294.062C387.037 272.594 399.6 259.188 417.037 259.188C434.381 259.188 447.037 272.594 447.037 294.062ZM438.881 294.062C438.881 276.531 429.318 267.062 417.037 267.062C404.756 267.062 395.193 276.531 395.193 294.062C395.193 311.594 404.756 321.062 417.037 321.062C429.318 321.062 438.881 311.594 438.881 294.062ZM540.881 294.062C540.881 315.531 528.225 328.938 510.881 328.938C493.443 328.938 480.881 315.531 480.881 294.062C480.881 272.594 493.443 259.188 510.881 259.188C528.225 259.188 540.881 272.594 540.881 294.062ZM532.725 294.062C532.725 276.531 523.162 267.062 510.881 267.062C498.6 267.062 489.037 276.531 489.037 294.062C489.037 311.594 498.6 321.062 510.881 321.062C523.162 321.062 532.725 311.594 532.725 294.062ZM577.35 328V260.125H600.412C616.35 260.125 623.568 268.938 623.568 281.031C623.568 289.984 619.537 297.062 610.912 300.062L626.193 328H616.35L602.193 301.562L600.506 301.656H585.787V328H577.35ZM585.787 293.969H600.131C610.912 293.969 615.225 289.094 615.225 281.031C615.225 272.875 610.912 267.625 600.037 267.625H585.787V293.969ZM668.287 260.125V328H659.85V260.125H668.287Z" fill="black"/>
<defs>
<linearGradient id="paint0_linear_33_5057" x1="-0.041963" y1="133.786" x2="452.538" y2="133.786" gradientUnits="userSpaceOnUse">
<stop offset="0.02" stop-color="#04204E"/>
<stop offset="0.54" stop-color="#073A8D"/>
<stop offset="1" stop-color="#3D84F5"/>
</linearGradient>
<linearGradient id="paint1_linear_33_5057" x1="7.80633" y1="133.786" x2="373.201" y2="133.786" gradientUnits="userSpaceOnUse">
<stop offset="0.02" stop-color="#8BB5F9" stop-opacity="0.4"/>
<stop offset="1" stop-color="white" stop-opacity="0"/>
</linearGradient>
<linearGradient id="paint2_linear_33_5057" x1="678.832" y1="86.2146" x2="226.244" y2="86.2146" gradientUnits="userSpaceOnUse">
<stop offset="0.02" stop-color="#0949AE"/>
<stop offset="0.54" stop-color="#0D65F2"/>
<stop offset="1" stop-color="#9EC1FA"/>
</linearGradient>
<linearGradient id="paint3_linear_33_5057" x1="670.975" y1="86.2155" x2="305.588" y2="86.2155" gradientUnits="userSpaceOnUse">
<stop offset="0.02" stop-color="#7CACF8" stop-opacity="0.4"/>
<stop offset="1" stop-color="white" stop-opacity="0"/>
</linearGradient>
</defs>
</svg>
