<svg width="757" height="368" viewBox="0 0 757 368" fill="none" xmlns="http://www.w3.org/2000/svg">
<path d="M500.012 197.212C499.398 197.587 498.674 198.128 497.766 198.614C496.859 199.1 495.85 199.705 494.677 200.374L490.808 202.382C489.333 203.014 487.829 203.785 486.133 204.454C482.385 205.994 478.527 207.25 474.592 208.212C472.501 208.726 470.31 209.129 468.028 209.514C465.524 209.88 463.002 210.116 460.474 210.22C459.218 210.22 457.971 210.22 456.688 210.22C435.429 209.661 416.471 196.982 403.169 181.095C389.528 164.805 381.067 145.215 372.605 125.936C365.51 109.774 357.8 93.1444 345.103 80.5393C339.913 75.3517 333.889 71.0723 327.282 67.8793C308.56 59.0182 286.94 58.5978 267.887 66.7242L266.741 67.2284C259.295 70.6096 252.288 74.8856 245.876 79.9618C233.281 89.8166 222.958 101.386 213.525 113.202C204.092 125.019 195.41 137.386 186.757 148.625C169.925 170.379 148.657 190.794 124.85 198.128C119.119 199.964 113.146 200.935 107.129 201.007C104.154 201.037 101.18 200.865 98.2279 200.493C95.2674 200.07 92.3371 199.457 89.4548 198.66C77.8841 195.482 67.359 189.303 58.946 180.747C52.8366 174.628 48.0691 167.304 44.9475 159.241C43.9582 156.621 43.1556 153.934 42.5457 151.201C41.3082 145.794 40.8635 140.235 41.2256 134.7C41.6328 129.176 42.7862 123.733 44.6542 118.519C48.4457 108.051 54.7068 98.651 62.9063 91.1184C70.6898 83.8811 80.1349 78.6706 90.4082 75.9465C100.051 73.4477 110.194 73.6252 119.744 76.4599C128.751 78.9428 136.909 83.8367 143.34 90.6142C149.127 96.6842 152.596 104.595 153.14 112.964C153.447 116.812 153.03 120.683 151.912 124.377C151.214 126.604 150.292 128.754 149.161 130.794C151.539 121.534 149.506 111.695 143.652 104.135C137.799 96.5754 128.782 92.1434 119.221 92.1268C100.951 92.1268 85.9529 109.16 88.5564 127.329C88.9248 129.879 89.6275 132.37 90.6465 134.736C95.7619 146.498 108.486 153.493 120.88 154.125C133.508 154.666 145.75 149.707 154.442 140.53C157.759 136.971 160.472 132.892 162.472 128.457C163.041 127.311 163.389 126.073 163.893 124.854C164.397 123.635 164.663 122.333 164.975 121.031C165.548 118.414 165.919 115.757 166.084 113.083C166.428 107.44 165.76 101.78 164.113 96.3712C162.374 90.6616 159.687 85.2849 156.165 80.466C149.051 70.6294 138.61 62.7089 126.582 57.7586C113.786 52.3989 99.7622 50.661 86.0445 52.7349C57.4884 56.9518 30.0323 76.7074 16.2814 106.822C12.7757 114.52 10.3716 122.673 9.14005 131.042C8.84669 133.187 8.64501 135.36 8.43416 137.523C8.22331 139.687 8.23248 141.905 8.23248 144.087C8.25967 148.495 8.61512 152.896 9.29589 157.251C9.95695 161.663 10.9405 166.02 12.2386 170.287C13.5896 174.593 15.2407 178.799 17.1798 182.874C21.0836 191.116 26.1565 198.752 32.2416 205.545C38.3725 212.442 45.399 218.488 53.1339 223.522C65.0842 231.268 78.5034 236.467 92.5533 238.794C97.376 239.552 102.248 239.953 107.129 239.995C116.972 240.091 126.773 238.697 136.199 235.861C145.295 233.141 154.031 229.333 162.216 224.521C169.956 219.974 177.265 214.73 184.052 208.854C206.347 189.694 224.242 163.448 243.181 140.86C250.726 131.867 258.371 122.782 267.86 115.888C284.022 104.163 302.695 103.228 319.38 114.605C336.486 126.202 347.441 144.005 359.89 160.001C374.347 178.574 389.986 197.587 409.806 210.688C424.905 220.68 443.863 226.794 462.06 223.641C467.726 222.661 473.225 220.886 478.396 218.37C482.597 216.343 486.535 213.809 490.121 210.825C491.698 209.542 493.036 208.166 494.264 206.984C495.493 205.801 496.474 204.5 497.354 203.399C498.234 202.299 498.912 201.245 499.527 200.356C500.141 199.467 500.553 198.642 500.92 198.009C501.617 196.717 501.974 196.029 501.974 196.029L500.012 197.212Z" fill="url(#paint0_linear_33_4951)"/>
<path d="M106.872 231.426C98.1432 231.346 89.4754 229.959 81.1578 227.309C64.7502 222.222 50.0468 212.743 38.6399 199.899C30.3441 190.623 24.1218 179.685 20.3878 167.814C19.2117 163.993 18.326 160.089 17.7384 156.134C17.7276 156.048 17.7123 155.962 17.6926 155.878C17.1005 151.933 16.7941 147.95 16.7759 143.96C16.7759 142.521 16.8492 140.898 16.9226 139.276L16.9684 138.148C17.1517 136.196 17.3443 134.179 17.6101 132.245C18.7202 124.705 20.8802 117.358 24.0272 110.417C36.0547 84.0795 60.2747 65.2407 87.2358 61.2529C90.5895 60.7552 93.9752 60.5039 97.3656 60.5012C106.238 60.4782 115.025 62.2331 123.208 65.6624C131.293 68.9215 138.615 73.8188 144.715 80.0459C138.114 74.584 130.441 70.5678 122.191 68.2567C116.394 66.522 110.374 65.6449 104.324 65.6532C98.9342 65.6567 93.5663 66.3343 88.345 67.67C76.7004 70.7356 65.9935 76.6307 57.1762 84.8312C47.9366 93.3013 40.8901 103.887 36.6414 115.679C34.519 121.621 33.2085 127.822 32.7453 134.115C32.3223 140.457 32.8194 146.827 34.2213 153.027C34.9239 156.143 35.8429 159.206 36.9714 162.194L37.1089 162.561C40.6673 171.654 46.056 179.92 52.9409 186.845C57.5943 191.564 62.8351 195.665 68.5345 199.047L68.6903 199.138C77.3715 204.256 86.986 207.59 96.9714 208.947H97.3656C100.213 209.298 103.077 209.494 105.946 209.534H107.294C114.085 209.461 120.827 208.373 127.297 206.307C149.555 199.496 171.822 181.876 193.494 153.916C197.014 149.332 200.571 144.51 204 139.863C209.198 132.822 214.579 125.552 220.162 118.576C228.293 108.446 238.34 96.7304 251.11 86.738C256.961 82.0863 263.362 78.1729 270.169 75.0864L271.223 74.6188C288.008 67.4748 307.045 67.8417 323.541 75.6272C329.281 78.4032 334.515 82.1216 339.025 86.628C350.365 97.8855 357.359 112.654 364.693 129.384L365.225 130.594C373.668 149.846 382.395 169.711 396.531 186.597C402.021 193.196 408.327 199.07 415.297 204.079L414.435 203.52C395.587 191.053 380.443 172.571 366.545 154.723C364.006 151.459 361.457 148.021 358.991 144.694C349.081 131.319 338.823 117.485 324.091 107.493C314.814 101.186 304.84 97.9771 294.573 97.9771C283.627 97.9771 272.571 101.763 262.725 108.978C252.293 116.55 243.905 126.552 236.516 135.38C231.089 141.843 225.68 148.7 220.455 155.319C207.318 171.957 193.741 189.155 178.368 202.374C171.972 207.908 165.087 212.848 157.796 217.134C150.22 221.591 142.134 225.122 133.714 227.649C125.605 230.075 117.197 231.353 108.733 231.444L106.872 231.426ZM123.016 145.647C122.457 145.647 121.906 145.647 121.356 145.647C112.868 145.189 102.536 140.605 98.5574 131.41C97.8368 129.732 97.3405 127.966 97.0814 126.157C96.2797 119.842 98.2524 113.49 102.49 108.74C109.219 100.876 120.484 98.6954 129.661 103.481C138.837 108.266 143.498 118.752 140.901 128.77C139.981 132.352 141.459 136.12 144.568 138.121C138.406 142.93 130.832 145.575 123.016 145.647Z" fill="url(#paint1_linear_33_4951)"/>
<path d="M256.951 42.7795C257.565 42.4037 258.289 41.8628 259.197 41.3769C260.104 40.8911 261.113 40.2768 262.286 39.6168L266.155 37.6092C267.63 36.9766 269.134 36.1974 270.83 35.5374C274.578 33.9974 278.436 32.741 282.372 31.7788C284.462 31.2654 286.653 30.8162 288.935 30.477C291.439 30.1111 293.961 29.8755 296.489 29.7711C297.745 29.7711 298.992 29.7253 300.275 29.7711C321.534 30.3395 340.492 43.0179 353.794 58.9048C367.435 75.1951 375.896 94.7856 384.358 114.055C391.453 130.226 399.163 146.856 411.86 159.461C417.05 164.649 423.074 168.928 429.681 172.121C448.404 180.979 470.025 181.396 489.076 173.267L490.222 172.772C497.668 169.387 504.675 165.108 511.087 160.029C523.682 150.174 534.005 138.605 543.438 126.798C552.871 114.99 561.543 102.633 570.197 91.3571C587.029 69.6397 608.297 49.1875 632.104 41.9086C637.836 40.0591 643.812 39.0765 649.834 38.9934C652.809 38.9633 655.783 39.1349 658.735 39.5068C661.695 39.9153 664.625 40.5124 667.508 41.2944C679.076 44.4734 689.6 50.6493 698.017 59.1982C702.094 63.3182 705.594 67.9717 708.422 73.0316C709.791 75.5085 710.992 78.0751 712.016 80.7138C713.006 83.3333 713.809 86.02 714.417 88.7535C715.655 94.1609 716.1 99.7194 715.737 105.255C715.33 110.778 714.177 116.221 712.309 121.435C708.517 131.904 702.256 141.303 694.057 148.836C686.273 156.073 676.828 161.284 666.555 164.008C656.912 166.507 646.769 166.329 637.219 163.495C628.212 161.012 620.054 156.118 613.623 149.34C607.836 143.27 604.367 135.359 603.823 126.99C603.506 123.161 603.903 119.306 604.996 115.623C605.695 113.397 606.617 111.247 607.747 109.206C605.369 118.466 607.402 128.306 613.256 135.865C619.109 143.425 628.126 147.857 637.687 147.873C655.957 147.873 670.955 130.841 668.352 112.671C667.985 110.121 667.282 107.63 666.261 105.264C661.192 93.548 648.468 86.5534 636.064 85.8842C623.438 85.3438 611.198 90.299 602.503 99.4701C599.184 103.05 596.474 107.15 594.482 111.608C593.913 112.754 593.565 113.991 593.061 115.21C592.556 116.43 592.291 117.731 591.979 119.033C591.405 121.65 591.034 124.307 590.87 126.981C590.526 132.625 591.194 138.284 592.841 143.693C594.582 149.402 597.268 154.778 600.789 159.598C607.902 169.435 618.344 177.356 630.372 182.306C643.184 187.668 657.224 189.399 670.955 187.311C699.511 183.094 726.967 163.339 740.718 133.224C744.224 125.526 746.628 117.373 747.86 109.004C748.153 106.859 748.355 104.686 748.566 102.523C748.776 100.359 748.767 98.1408 748.767 95.959C748.74 91.5506 748.385 87.1504 747.704 82.7948C747.043 78.3834 746.059 74.0265 744.761 69.7589C743.41 65.453 741.759 61.2472 739.82 57.1722C735.916 48.93 730.843 41.2944 724.758 34.5015C718.647 27.5915 711.639 21.5301 703.921 16.4785C696.011 11.382 687.452 7.37352 678.472 4.56104C673.887 3.12773 669.206 2.01881 664.465 1.24248C659.625 0.470214 654.734 0.0565542 649.834 0.00489042C639.991 -0.093639 630.191 1.29719 620.764 4.13018C611.696 6.85972 602.988 10.6701 594.83 15.4793C587.09 20.0267 579.781 25.2707 572.993 31.1462C550.698 50.3059 532.804 76.5519 513.864 99.1401C506.32 108.133 498.674 117.218 489.186 124.112C473.024 135.828 454.35 136.772 437.666 125.395C420.559 113.799 409.605 95.9957 397.155 79.9988C382.698 61.4167 367.059 42.4128 347.239 29.3128C332.141 19.3204 313.183 13.2058 294.986 16.3502C289.32 17.3376 283.821 19.1151 278.65 21.6306C274.448 23.6576 270.51 26.1914 266.925 29.1753C265.348 30.4587 264.009 31.8338 262.781 33.0164C261.553 34.1989 260.572 35.5007 259.692 36.5916C258.812 37.6825 258.133 38.7551 257.519 39.6443C256.905 40.5335 256.492 41.3586 256.126 41.9911C255.429 43.2837 255.071 43.9621 255.071 43.9621L256.951 42.7795Z" fill="url(#paint2_linear_33_4951)"/>
<path d="M650.091 8.57597C658.819 8.65537 667.487 10.0428 675.805 12.6921C692.212 17.7792 706.916 27.2581 718.323 40.1023C726.624 49.3918 732.847 60.3464 736.575 72.2337C737.751 76.0544 738.637 79.9586 739.224 83.9128C739.22 83.9984 739.22 84.084 739.224 84.1695C739.816 88.1148 740.123 92.0976 740.141 96.087C740.141 97.5355 740.068 99.1581 739.994 100.772V101.908C739.811 103.861 739.618 105.878 739.353 107.812C738.242 115.352 736.082 122.699 732.935 129.639C720.899 155.959 696.679 174.807 669.718 178.785C666.365 179.291 662.979 179.545 659.588 179.546C650.715 179.569 641.928 177.814 633.745 174.385C625.66 171.111 618.34 166.198 612.248 159.956C618.849 165.417 626.522 169.434 634.772 171.745C640.569 173.479 646.588 174.357 652.639 174.348C658.028 174.345 663.396 173.667 668.618 172.331C680.262 169.266 690.969 163.371 699.786 155.17C709.026 146.7 716.073 136.115 720.321 124.322C722.444 118.38 723.754 112.179 724.217 105.887C724.641 99.5446 724.143 93.1745 722.741 86.9747C722.039 83.8588 721.12 80.7956 719.991 77.8074L719.854 77.4407C718.709 74.4966 717.368 71.6329 715.838 68.8693C712.664 63.1306 708.716 57.8558 704.104 53.1932C699.429 48.4494 694.16 44.3297 688.428 40.9365C688.379 40.9009 688.327 40.8702 688.272 40.8449C679.591 35.7274 669.977 32.3928 659.991 31.0359L659.597 30.99C656.75 30.6388 653.885 30.443 651.016 30.4033H649.669C642.874 30.4976 636.132 31.6069 629.666 33.6944C607.408 40.5057 585.14 58.1252 563.469 86.0855C559.948 90.6692 556.391 95.482 552.963 100.139C547.765 107.17 542.384 114.449 536.801 121.425C528.67 131.509 518.622 143.271 505.852 153.263C500.002 157.915 493.601 161.829 486.793 164.915L485.739 165.383C468.955 172.53 449.915 172.159 433.421 164.365C427.68 161.593 422.445 157.874 417.938 153.364C406.598 142.107 399.603 127.338 392.269 110.608L391.738 109.389C383.294 90.1375 374.567 70.2811 360.431 53.3949C354.924 46.7768 348.597 40.8868 341.602 35.867L342.463 36.4354C361.311 48.9029 376.456 67.3842 390.353 85.2329C392.893 88.4965 395.441 91.9342 397.907 95.2619C407.817 108.637 418.075 122.471 432.807 132.463C442.084 138.77 452.058 141.979 462.326 141.979C473.272 141.979 484.281 138.192 494.173 130.978C504.605 123.406 512.993 113.404 520.382 104.576C525.809 98.1589 531.218 91.2559 536.443 84.6371C549.58 67.9984 563.157 50.8005 578.53 37.5813C584.926 32.0482 591.812 27.108 599.102 22.8219C606.699 18.3716 614.807 14.8564 623.249 12.3529C631.357 9.92645 639.766 8.64892 648.23 8.55762L650.091 8.57597ZM633.947 94.3452C634.506 94.3452 635.056 94.3453 635.606 94.3911C644.095 94.8495 654.427 99.4239 658.405 108.628C659.125 110.304 659.621 112.067 659.881 113.872C660.683 120.187 658.71 126.539 654.472 131.289C647.744 139.153 636.479 141.334 627.302 136.548C618.125 131.763 613.465 121.277 616.061 111.259C616.982 107.678 615.504 103.909 612.395 101.908C618.552 97.0864 626.127 94.4283 633.947 94.3452Z" fill="url(#paint3_linear_33_4951)"/>
<path d="M8.51562 275.641H19.9062L45.6406 338.5H46.5898L72.3242 275.641H83.7148V352H74.75V294.309H74.0117L50.2812 352H41.8438L18.1133 294.309H17.4805V352H8.51562V275.641ZM177.688 275.641H187.18V326.16C187.18 341.875 175.473 353.371 157.438 353.371C139.402 353.371 127.695 341.875 127.695 326.16V275.641H137.188V325.422C137.188 336.496 144.887 344.512 157.438 344.512C170.094 344.512 177.688 336.496 177.688 325.422V275.641ZM231.16 352V275.641H240.652V343.562H276.09V352H231.16ZM315.852 275.641H327.242L352.977 338.5H353.926L379.66 275.641H391.051V352H382.086V294.309H381.348L357.617 352H349.18L325.449 294.309H324.816V352H315.852V275.641ZM499.578 313.82C499.578 337.973 485.34 353.055 465.828 353.055C446.211 353.055 432.078 337.973 432.078 313.82C432.078 289.668 446.211 274.586 465.828 274.586C485.34 274.586 499.578 289.668 499.578 313.82ZM490.402 313.82C490.402 294.098 479.645 283.445 465.828 283.445C452.012 283.445 441.254 294.098 441.254 313.82C441.254 333.543 452.012 344.195 465.828 344.195C479.645 344.195 490.402 333.543 490.402 313.82ZM605.152 313.82C605.152 337.973 590.914 353.055 571.402 353.055C551.785 353.055 537.652 337.973 537.652 313.82C537.652 289.668 551.785 274.586 571.402 274.586C590.914 274.586 605.152 289.668 605.152 313.82ZM595.977 313.82C595.977 294.098 585.219 283.445 571.402 283.445C557.586 283.445 546.828 294.098 546.828 313.82C546.828 333.543 557.586 344.195 571.402 344.195C585.219 344.195 595.977 333.543 595.977 313.82ZM646.18 352V275.641H672.125C690.055 275.641 698.176 285.555 698.176 299.16C698.176 309.232 693.641 317.195 683.938 320.57L701.129 352H690.055L674.129 322.258L672.23 322.363H655.672V352H646.18ZM655.672 313.715H671.809C683.938 313.715 688.789 308.23 688.789 299.16C688.789 289.984 683.938 284.078 671.703 284.078H655.672V313.715ZM748.484 275.641V352H738.992V275.641H748.484Z" fill="black"/>
<defs>
<linearGradient id="paint0_linear_33_4951" x1="8.18664" y1="145.948" x2="501.91" y2="145.948" gradientUnits="userSpaceOnUse">
<stop offset="0.02" stop-color="#04204E"/>
<stop offset="0.54" stop-color="#073A8D"/>
<stop offset="1" stop-color="#3D84F5"/>
</linearGradient>
<linearGradient id="paint1_linear_33_4951" x1="16.7484" y1="145.95" x2="415.361" y2="145.95" gradientUnits="userSpaceOnUse">
<stop offset="0.02" stop-color="#8BB5F9" stop-opacity="0.4"/>
<stop offset="1" stop-color="white" stop-opacity="0"/>
</linearGradient>
<linearGradient id="paint2_linear_33_4951" x1="748.776" y1="94.0522" x2="255.044" y2="94.0522" gradientUnits="userSpaceOnUse">
<stop offset="0.02" stop-color="#0949AE"/>
<stop offset="0.54" stop-color="#0D65F2"/>
<stop offset="1" stop-color="#9EC1FA"/>
</linearGradient>
<linearGradient id="paint3_linear_33_4951" x1="740.205" y1="94.0519" x2="341.602" y2="94.0519" gradientUnits="userSpaceOnUse">
<stop offset="0.02" stop-color="#7CACF8" stop-opacity="0.4"/>
<stop offset="1" stop-color="white" stop-opacity="0"/>
</linearGradient>
</defs>
</svg>
