<svg width="12" height="20" viewBox="0 0 12 20" fill="none" xmlns="http://www.w3.org/2000/svg">
<g id="fishing-float-2">
<path id="secondary" d="M11.0003 7.99984C11.0003 11.3098 8.76035 15.9998 6.00035 15.9998C3.24035 15.9998 1.00035 11.3098 1.00035 7.99984C0.996809 7.69504 1.02023 7.39052 1.07035 7.08984C2.65179 7.66468 4.3179 7.97221 6.00035 7.99984C7.6828 7.97221 9.34891 7.66468 10.9303 7.08984C10.9805 7.39052 11.0039 7.69504 11.0003 7.99984Z" fill="#5891EB"/>
<path id="primary" d="M1.13037 7.09961C2.69019 7.67628 4.33748 7.98071 6.00037 7.99961C7.66327 7.98071 9.31056 7.67628 10.8704 7.09961" stroke="black" stroke-linecap="round" stroke-linejoin="round"/>
<path id="primary_2" d="M6.00049 1V4M6.00049 4C3.24049 4 1.00049 4.69 1.00049 8C1.00049 11.31 3.24049 16 6.00049 16M6.00049 4C8.76049 4 11.0005 4.69 11.0005 8C11.0005 11.31 8.76049 16 6.00049 16M6.00049 19V16" stroke="black" stroke-linecap="round" stroke-linejoin="round"/>
</g>
</svg>
